<svg id="Layer_1" data-name="Layer 1" xmlns="http://www.w3.org/2000/svg" viewBox="0 0 825.58 405.02"><defs><style>.cls-1{fill:#fff;}</style></defs><title>rethink-hello-logo-dark</title><path d="M91.21,301.49l0.34,237.64,111.18-49.66H916.79v-188H91.21Z" transform="translate(-91.21 -301.49)"/><path class="cls-1" d="M224.86,381.2c0,13.27-6.5,24.51-16.38,29.79l19,27.76H199.81L186,415.87H169.75v22.88H147.54V346.67h44.55C210.78,346.67,224.86,361.16,224.86,381.2Zm-55.11-13.95v28h19.09a14,14,0,0,0,.14-28H169.75Z" transform="translate(-91.21 -301.49)"/><path class="cls-1" d="M327.39,346.67v20.58H279V383.1H319.4v19.23H279v15.84h48.34v20.58H256.84V346.67h70.55Z" transform="translate(-91.21 -301.49)"/><path class="cls-1" d="M441.29,367.26H408.65v71.5H386.17v-71.5H353.54V346.67h87.75v20.58Z" transform="translate(-91.21 -301.49)"/><path class="cls-1" d="M555.05,438.76H532.71V403H492.22v35.75H470V346.67h22.21v35.75h40.49V346.67h22.34v92.08Z" transform="translate(-91.21 -301.49)"/><path class="cls-1" d="M611.4,438.76H589.2V346.67H611.4v92.08Z" transform="translate(-91.21 -301.49)"/><path class="cls-1" d="M735.45,438.76H713.11l-46.58-56.33v56.33H644.18V346.67h22.34l46.58,56.2v-56.2h22.34v92.08Z" transform="translate(-91.21 -301.49)"/><path class="cls-1" d="M822,383.78l38.46,55H831.62L806.43,400.7,790.58,418v20.72H768.38V346.67h22.21v40.49l35.21-40.49h27.9Z" transform="translate(-91.21 -301.49)"/><path d="M816.14,464.17H191.86V664.77H724.37l0.79,0.36,90.47,41.38ZM789.84,494V666.37l-5.66-2.59L730,639H217.64V490h572.2v4Z" transform="translate(-91.21 -301.49)"/><path d="M343.71,610.38H320.48V573.21h-42.1v37.17H255.29V514.64h23.09v37.17h42.1V514.64h23.23v95.74Z" transform="translate(-91.21 -301.49)"/><path d="M445.5,514.64V536H395.24v16.47h42v20h-42V589H445.5v21.4H372.15V514.64H445.5Z" transform="translate(-91.21 -301.49)"/><path d="M494.36,589h50.26v21.4H471.27V514.64h23.09V589Z" transform="translate(-91.21 -301.49)"/><path d="M591.22,589h50.26v21.4H568.13V514.64h23.09V589Z" transform="translate(-91.21 -301.49)"/><path d="M752.71,562.51a49.42,49.42,0,1,1-49.42-49.56A49.6,49.6,0,0,1,752.71,562.51Zm-77.72,0a28.16,28.16,0,1,0,28.3-28A28.18,28.18,0,0,0,675,562.51Z" transform="translate(-91.21 -301.49)"/></svg>