<svg id="Layer_1" data-name="Layer 1" xmlns="http://www.w3.org/2000/svg" viewBox="0 0 825.58 405.03"><defs><style>.cls-1{fill:#fff;}</style></defs><title>Rethink_Hello_Logo</title><path class="cls-1" d="M1233,367.26h-19.23v28h19.09A14,14,0,0,0,1233,367.26Z" transform="translate(-1135.21 -301.49)"/><path class="cls-1" d="M1960.79,301.49H1135.21l0.34,237.64,100.31-44.81V664.77h532.51l0.79,0.36,90.47,41.38,0.45-217.05h100.71v-188Zm-272.61,45.19h22.34l46.58,56.2v-56.2h22.34v92.08h-22.34l-46.58-56.33v56.33h-22.34V346.67Zm-55,0h22.21v92.08H1633.2V346.67Zm-119.19,0h22.21v35.75h40.49V346.67h22.34v92.08h-22.34V403h-40.49v35.75H1514V346.67Zm-116.47,0h87.75v20.58h-32.64v71.5h-22.48v-71.5h-32.63V346.67Zm-96.7,0h70.55v20.58H1323V383.1h40.35v19.23H1323v15.84h48.34v20.58h-70.55V346.67Zm-87.09,69.2v22.88h-22.21V346.67h44.55c18.69,0,32.77,14.49,32.77,34.53,0,13.27-6.5,24.51-16.38,29.79l19,27.76h-27.62L1230,415.87h-16.25ZM1833.84,494V666.37l-5.66-2.59L1774,639H1261.64V490h572.2v4Zm41.77-55.2-25.19-38.05L1834.58,418v20.72h-22.21V346.67h22.21v40.49l35.21-40.49h27.9L1866,383.78l38.46,55h-28.84Z" transform="translate(-1135.21 -301.49)"/><polygon class="cls-1" points="229.27 250.32 187.17 250.32 187.17 213.15 164.08 213.15 164.08 308.89 187.17 308.89 187.17 271.72 229.27 271.72 229.27 308.89 252.5 308.89 252.5 213.15 229.27 213.15 229.27 250.32"/><polygon class="cls-1" points="280.94 308.89 354.29 308.89 354.29 287.49 304.03 287.49 304.03 271.01 345.99 271.01 345.99 251.02 304.03 251.02 304.03 234.55 354.29 234.55 354.29 213.15 280.94 213.15 280.94 308.89"/><polygon class="cls-1" points="403.15 213.15 380.06 213.15 380.06 308.89 453.41 308.89 453.41 287.49 403.15 287.49 403.15 213.15"/><polygon class="cls-1" points="500.01 213.15 476.92 213.15 476.92 308.89 550.28 308.89 550.28 287.49 500.01 287.49 500.01 213.15"/><path class="cls-1" d="M1747.29,512.95a49.56,49.56,0,1,0,49.42,49.56A49.51,49.51,0,0,0,1747.29,512.95Zm0,77.72a28.09,28.09,0,1,1,28-28.16A28.18,28.18,0,0,1,1747.29,590.66Z" transform="translate(-1135.21 -301.49)"/></svg>